<svg xmlns="http://www.w3.org/2000/svg" xmlns:xlink="http://www.w3.org/1999/xlink" width="500" zoomAndPan="magnify" viewBox="0 0 375 374.999991" height="500" preserveAspectRatio="xMidYMid meet" version="1.2"><g id="67656e9f52"><rect x="0" width="375" y="0" height="374.999991" style="fill:#ffffff;fill-opacity:1;stroke:none;"/><rect x="0" width="375" y="0" height="374.999991" style="fill:#000000;fill-opacity:1;stroke:none;"/><path style=" stroke:none;fill-rule:nonzero;fill:#ffffff;fill-opacity:1;" d="M 204.894531 184.355469 C 206.550781 185.066406 208.011719 185.917969 209.246094 187.257812 C 210.515625 188.957031 211.371094 190.640625 211.664062 192.753906 C 211.828125 195.523438 211.523438 197.988281 210.289062 200.5 C 208.910156 203.105469 206.976562 205.402344 204.492188 207.011719 C 204.101562 207.246094 203.707031 207.476562 203.308594 207.699219 L 202.867188 207.957031 C 199.820312 209.617188 196.632812 209.714844 193.253906 209.699219 L 192.332031 209.699219 C 191.527344 209.699219 190.726562 209.695312 189.925781 209.695312 C 189.105469 209.691406 188.285156 209.691406 187.464844 209.6875 C 185.859375 209.6875 184.253906 209.683594 182.648438 209.679688 C 183.253906 205.933594 183.863281 202.1875 184.558594 198.457031 C 184.636719 198.042969 184.710938 197.625 184.785156 197.203125 C 185.355469 194.214844 186.496094 191.835938 188.363281 189.457031 C 190.480469 187.011719 193.195312 185.28125 196.25 184.222656 C 198.945312 183.347656 202.246094 183.398438 204.894531 184.355469 M 167.480469 183.742188 C 168.554688 183.71875 169.628906 183.703125 170.703125 183.691406 C 171.070312 183.6875 171.433594 183.683594 171.796875 183.675781 C 174.371094 183.621094 176.582031 183.78125 178.929688 184.960938 C 180.300781 185.722656 181.207031 186.667969 182.078125 187.964844 C 182.921875 189.441406 183.335938 191.066406 183.347656 192.765625 C 183.335938 194.113281 183.121094 195.386719 182.863281 196.707031 L 182.71875 197.46875 C 182.617188 198.015625 182.515625 198.558594 182.410156 199.101562 C 182.160156 200.410156 181.917969 201.722656 181.671875 203.035156 L 181.5 203.953125 C 181.050781 206.359375 180.617188 208.773438 180.199219 211.1875 L 180.113281 211.671875 C 179.84375 213.230469 179.574219 214.789062 179.304688 216.347656 L 179.078125 217.65625 C 178.988281 218.191406 178.894531 218.726562 178.804688 219.257812 L 178.679688 219.972656 L 178.574219 220.59375 C 178.472656 221.109375 178.472656 221.109375 178.25 221.769531 L 175.613281 221.769531 C 175.75 220.222656 175.960938 218.714844 176.238281 217.191406 L 176.34375 216.609375 C 176.46875 215.902344 176.597656 215.195312 176.726562 214.488281 L 177.59375 209.679688 L 162.863281 209.679688 C 163 207.925781 163.136719 206.289062 163.46875 204.578125 L 163.585938 203.960938 C 163.710938 203.292969 163.835938 202.625 163.964844 201.957031 C 164.144531 201 164.320312 200.042969 164.5 199.089844 L 164.640625 198.34375 C 164.976562 196.527344 165.304688 194.707031 165.617188 192.890625 L 165.753906 192.109375 C 165.929688 191.105469 166.101562 190.101562 166.273438 189.097656 C 166.394531 188.40625 166.515625 187.714844 166.636719 187.019531 L 166.742188 186.398438 C 166.902344 185.464844 167.074219 184.605469 167.480469 183.742188 M 189.023438 147.25 L 191.660156 147.25 C 190.75 152.882812 189.75 158.5 188.703125 164.105469 C 188.5 165.195312 188.296875 166.285156 188.105469 167.378906 C 187.992188 168.019531 187.875 168.660156 187.757812 169.300781 L 187.652344 169.933594 C 187.140625 172.699219 185.894531 175.011719 184.132812 177.171875 C 182.621094 178.839844 180.558594 180.082031 178.472656 180.882812 C 175.96875 181.683594 173.511719 181.628906 170.910156 181.605469 C 170.460938 181.605469 170.011719 181.605469 169.5625 181.605469 C 168.390625 181.601562 167.214844 181.59375 166.042969 181.585938 C 164.84375 181.582031 163.640625 181.578125 162.441406 181.574219 C 160.089844 181.566406 157.742188 181.554688 155.390625 181.542969 L 155.832031 178.90625 L 168.140625 178.683594 L 169.035156 173.84375 L 170.289062 167.054688 C 170.546875 165.65625 170.804688 164.257812 171.050781 162.859375 L 171.175781 162.167969 C 171.25 161.753906 171.324219 161.335938 171.394531 160.921875 C 171.476562 160.464844 171.566406 160.011719 171.65625 159.5625 L 171.875 159.339844 C 172.34375 159.320312 172.808594 159.316406 173.273438 159.316406 L 173.714844 159.316406 C 174.199219 159.316406 174.683594 159.316406 175.167969 159.320312 L 176.171875 159.320312 C 177.054688 159.320312 177.9375 159.324219 178.820312 159.324219 C 179.722656 159.328125 180.621094 159.328125 181.523438 159.332031 C 183.289062 159.332031 185.058594 159.335938 186.824219 159.339844 L 186.90625 158.695312 C 187.117188 157.09375 187.339844 155.5 187.636719 153.910156 L 187.734375 153.367188 C 187.804688 152.992188 187.875 152.621094 187.941406 152.25 C 188.046875 151.679688 188.152344 151.109375 188.257812 150.539062 L 188.460938 149.445312 L 188.554688 148.929688 C 188.777344 147.742188 188.777344 147.742188 189.023438 147.25 M 191.878906 159.339844 C 193.492188 159.328125 195.101562 159.320312 196.710938 159.316406 C 197.257812 159.316406 197.804688 159.3125 198.355469 159.308594 C 199.144531 159.300781 199.933594 159.300781 200.722656 159.296875 L 201.457031 159.292969 C 203.886719 159.289062 206.042969 159.5625 208.199219 160.726562 C 209.566406 161.570312 210.636719 162.53125 211.4375 163.9375 C 212.242188 165.570312 212.539062 167.195312 212.542969 169.011719 C 212.378906 171.332031 211.601562 173.433594 210.332031 175.375 C 210.117188 175.675781 209.902344 175.972656 209.683594 176.265625 L 209.191406 176.941406 L 208.804688 177.367188 L 208.367188 177.367188 L 208.367188 177.804688 C 206.332031 179.503906 204.152344 180.78125 201.550781 181.390625 C 199.589844 181.722656 197.523438 181.707031 195.617188 181.101562 C 194.078125 180.496094 192.730469 179.765625 191.605469 178.539062 C 190.519531 177.089844 189.746094 175.414062 189.460938 173.628906 C 189.371094 171.90625 189.566406 170.289062 189.878906 168.601562 L 190.007812 167.878906 C 190.097656 167.378906 190.191406 166.878906 190.28125 166.382812 C 190.425781 165.617188 190.5625 164.851562 190.699219 164.085938 L 190.964844 162.625 L 191.089844 161.933594 L 191.207031 161.289062 L 191.3125 160.726562 C 191.441406 160.214844 191.625 159.800781 191.878906 159.339844 "/></g></svg>